<svg width="629" height="171" viewBox="0 0 629 171" fill="none" xmlns="http://www.w3.org/2000/svg">
<g clip-path="url(#clip0_430_727)">
<path d="M235 171V0H273.009V171H235Z" fill="black"/>
<path d="M388.972 171H434.052L375.715 81.3544L425.876 0H381.68L333.509 77.4681V0H295.5V171H333.509V85.7592L388.972 171Z" fill="black"/>
<path d="M449.148 0V171H487.157V0H449.148Z" fill="black"/>
<path d="M547.64 40.1591V171H585.649V40.1591H629.402V0H503.888V40.1591H547.64Z" fill="black"/>
<foreignObject x="-100" y="-100" width="414.144" height="371"><div xmlns="http://www.w3.org/1999/xhtml" style="backdrop-filter:blur(50px);clip-path:url(#bgblur_1_430_727_clip_path);height:100%;width:100%"></div></foreignObject><path data-figma-bg-blur-radius="100" d="M196.921 0C212.916 8.09693e-05 214.927 12.9313 213.932 19.3975L182.298 116.388C176.33 134.293 164.889 138.77 159.915 138.77C136.041 138.67 86.7408 138.531 80.5335 138.77C74.3263 139.008 70.7268 141.754 68.596 146.23L65.6126 156.078C62.3717 166.523 54.8688 170.602 50.6908 171H7.12045C-0.757837 171 -0.53913 163.44 0.555023 159.66L45.0208 20.8896C50.0345 5.84941 62.4286 0.696473 67.9994 0H196.921ZM113.104 38.7959C111.045 38.7961 109.398 40.0312 108.987 42.0898C105.693 59.3836 101.163 63.913 83.8695 67.207C82.2226 67.6188 80.5757 69.2656 80.5755 71.3242C80.5755 73.383 81.8107 75.0306 83.8695 75.4424C101.163 78.7364 105.693 83.2658 108.987 100.56C109.398 102.618 111.045 103.853 113.104 103.854C115.163 103.854 116.81 102.207 117.222 100.56C120.516 83.2658 125.045 78.7364 142.339 75.4424C144.398 75.0306 145.633 73.383 145.633 71.3242C145.633 69.2656 144.398 67.6188 142.339 67.207C125.045 63.913 120.516 59.3836 117.222 42.0898C116.81 40.0311 115.163 38.7959 113.104 38.7959Z" fill="black"/>
</g>
<defs>
<clipPath id="bgblur_1_430_727_clip_path" transform="translate(100 100)"><path d="M196.921 0C212.916 8.09693e-05 214.927 12.9313 213.932 19.3975L182.298 116.388C176.33 134.293 164.889 138.77 159.915 138.77C136.041 138.67 86.7408 138.531 80.5335 138.77C74.3263 139.008 70.7268 141.754 68.596 146.23L65.6126 156.078C62.3717 166.523 54.8688 170.602 50.6908 171H7.12045C-0.757837 171 -0.53913 163.44 0.555023 159.66L45.0208 20.8896C50.0345 5.84941 62.4286 0.696473 67.9994 0H196.921ZM113.104 38.7959C111.045 38.7961 109.398 40.0312 108.987 42.0898C105.693 59.3836 101.163 63.913 83.8695 67.207C82.2226 67.6188 80.5757 69.2656 80.5755 71.3242C80.5755 73.383 81.8107 75.0306 83.8695 75.4424C101.163 78.7364 105.693 83.2658 108.987 100.56C109.398 102.618 111.045 103.853 113.104 103.854C115.163 103.854 116.81 102.207 117.222 100.56C120.516 83.2658 125.045 78.7364 142.339 75.4424C144.398 75.0306 145.633 73.383 145.633 71.3242C145.633 69.2656 144.398 67.6188 142.339 67.207C125.045 63.913 120.516 59.3836 117.222 42.0898C116.81 40.0311 115.163 38.7959 113.104 38.7959Z"/>
</clipPath><clipPath id="clip0_430_727">
<rect width="629" height="171" fill="white"/>
</clipPath>
</defs>
</svg>
