<svg xmlns="http://www.w3.org/2000/svg" viewBox="0 0 587 469" fill="none" aria-hidden="true">
  <path fill-rule="evenodd" clip-rule="evenodd" fill="#a7aaad" d="M19.5086 468.5H138.882C150.329 467.41 170.884 456.236 179.763 427.619L187.94 400.637C193.777 388.373 203.638 380.851 220.645 380.197C237.651 379.542 372.723 379.924 438.133 380.197C451.76 380.196 483.103 367.932 499.455 318.874L586.124 53.1457C588.849 35.4305 583.344 0 539.519 0H186.304C171.042 1.90779 137.083 16.0255 123.347 57.2338L1.52085 437.43C-1.47712 447.787 -2.07671 468.5 19.5086 468.5ZM389.977 206.694C342.596 215.719 330.187 228.128 321.162 275.509C320.033 280.022 315.521 284.534 309.88 284.534C304.24 284.534 299.727 281.15 298.599 275.509C289.574 228.128 277.165 215.719 229.784 206.694C224.143 205.566 220.759 201.053 220.759 195.413C220.759 189.772 225.272 185.26 229.784 184.132C277.165 175.107 289.574 162.697 298.599 115.316C299.727 109.676 304.24 106.291 309.88 106.291C315.521 106.291 320.033 109.676 321.162 115.316C330.187 162.697 342.596 175.107 389.977 184.132C395.617 185.26 399.002 189.772 399.002 195.413C399.002 201.053 395.617 205.566 389.977 206.694Z"/>
</svg>
